<svg width="24" height="24" viewBox="0 0 24 24" fill="none" xmlns="http://www.w3.org/2000/svg">
<path d="M12 1.5C12.9946 1.5 13.9484 1.89509 14.6517 2.59835C15.3549 3.30161 15.75 4.25544 15.75 5.25V6H8.25V5.25C8.25 4.25544 8.64509 3.30161 9.34835 2.59835C10.0516 1.89509 11.0054 1.5 12 1.5ZM17.25 6V5.25C17.25 3.85761 16.6969 2.52226 15.7123 1.53769C14.7277 0.553123 13.3924 0 12 0C10.6076 0 9.27226 0.553123 8.28769 1.53769C7.30312 2.52226 6.75 3.85761 6.75 5.25V6H1.5V21C1.5 21.7957 1.81607 22.5587 2.37868 23.1213C2.94129 23.6839 3.70435 24 4.5 24H19.5C20.2957 24 21.0587 23.6839 21.6213 23.1213C22.1839 22.5587 22.5 21.7957 22.5 21V6H17.25ZM3 7.5H21V21C21 21.3978 20.842 21.7794 20.5607 22.0607C20.2794 22.342 19.8978 22.5 19.5 22.5H4.5C4.10218 22.5 3.72064 22.342 3.43934 22.0607C3.15804 21.7794 3 21.3978 3 21V7.5Z" fill="black"/>
<rect x="6" y="4.5" width="3" height="1.5" fill="white"/>
<rect x="15" y="4.5" width="3" height="1.5" fill="white"/>
<path d="M7.5 12V12.6429C7.5 13.6658 7.97411 14.6469 8.81802 15.3703C9.66193 16.0936 10.8065 16.5 12 16.5C13.1935 16.5 14.3381 16.0936 15.182 15.3703C16.0259 14.6469 16.5 13.6658 16.5 12.6429V12" stroke="black" stroke-width="1.5" stroke-linecap="round" stroke-linejoin="round"/>
</svg>
