<svg width="40" height="40" viewBox="0 0 40 40" fill="none" xmlns="http://www.w3.org/2000/svg">
<circle cx="20" cy="20" r="20" transform="matrix(-1 0 0 1 40 0)" fill="black" fill-opacity="0.5"/>
<path d="M30.2357 20.5816C30.2357 15.2262 25.9002 10.8799 20.5583 10.8799C15.2163 10.8799 10.8809 15.2262 10.8809 20.5816C10.8809 25.2772 14.2099 29.1869 18.6228 30.0892V23.4921H16.6873V20.5816H18.6228V18.1561C18.6228 16.2837 20.1421 14.7606 22.0099 14.7606H24.4292V17.6711H22.4938C21.9615 17.6711 21.526 18.1076 21.526 18.6412V20.5816H24.4292V23.4921H21.526V30.2347C26.4131 29.7496 30.2357 25.6167 30.2357 20.5816Z" fill="#D3D3D3"/>
</svg>
