<svg width="40" height="40" viewBox="0 0 40 40" fill="none" xmlns="http://www.w3.org/2000/svg">
<circle cx="20" cy="20" r="20" transform="matrix(-1 0 0 1 40 0)" fill="#555555"/>
<path d="M30.2377 20.5816C30.2377 15.2262 25.9022 10.8799 20.5602 10.8799C15.2183 10.8799 10.8828 15.2262 10.8828 20.5816C10.8828 25.2772 14.2118 29.1869 18.6247 30.0892V23.4921H16.6893V20.5816H18.6247V18.1561C18.6247 16.2837 20.1441 14.7606 22.0118 14.7606H24.4312V17.6711H22.4957C21.9635 17.6711 21.528 18.1076 21.528 18.6412V20.5816H24.4312V23.4921H21.528V30.2347C26.4151 29.7496 30.2377 25.6167 30.2377 20.5816Z" fill="#333333"/>
</svg>
