<svg width="40" height="40" viewBox="0 0 40 40" fill="none" xmlns="http://www.w3.org/2000/svg">
<circle cx="20" cy="20" r="20" transform="matrix(-1 0 0 1 40 0)" fill="black"/>
<path d="M12.5527 16.2596C13.246 14.879 14.3097 13.7184 15.6247 12.9075C16.9398 12.0967 18.4544 11.6675 19.9994 11.668C22.2452 11.668 24.1319 12.493 25.5744 13.8388L23.1852 16.2288C22.321 15.403 21.2227 14.9821 19.9994 14.9821C17.8285 14.9821 15.991 16.4488 15.3369 18.418C15.1702 18.918 15.0752 19.4513 15.0752 20.0013C15.0752 20.5513 15.1702 21.0846 15.3369 21.5846C15.9919 23.5546 17.8285 25.0205 19.9994 25.0205C21.1202 25.0205 22.0744 24.7246 22.821 24.2246C23.2539 23.9396 23.6245 23.5698 23.9104 23.1375C24.1962 22.7053 24.3915 22.2195 24.4844 21.7096H19.9994V18.4863H27.8477C27.946 19.0313 27.9993 19.5996 27.9993 20.1905C27.9993 22.7288 27.091 24.8655 25.5143 26.3155C24.136 27.5888 22.2494 28.3346 19.9994 28.3346C18.9049 28.3351 17.821 28.1198 16.8098 27.7012C15.7986 27.2826 14.8797 26.6687 14.1058 25.8948C13.3319 25.1209 12.7181 24.2021 12.2995 23.1908C11.8808 22.1796 11.6656 21.0958 11.666 20.0013C11.666 18.6563 11.9877 17.3846 12.5527 16.2596Z" fill="white"/>
</svg>
