<svg width="40" height="40" viewBox="0 0 40 40" fill="none" xmlns="http://www.w3.org/2000/svg">
<circle cx="20" cy="20" r="20" transform="matrix(-1 0 0 1 40 0)" fill="black" fill-opacity="0.5"/>
<path d="M12.5527 16.2587C13.246 14.878 14.3097 13.7174 15.6247 12.9065C16.9398 12.0957 18.4544 11.6665 19.9994 11.667C22.2452 11.667 24.1319 12.492 25.5744 13.8378L23.1852 16.2278C22.321 15.402 21.2227 14.9812 19.9994 14.9812C17.8285 14.9812 15.991 16.4478 15.3369 18.417C15.1702 18.917 15.0752 19.4503 15.0752 20.0003C15.0752 20.5503 15.1702 21.0837 15.3369 21.5837C15.9919 23.5537 17.8285 25.0195 19.9994 25.0195C21.1202 25.0195 22.0744 24.7237 22.821 24.2237C23.2539 23.9387 23.6245 23.5688 23.9104 23.1366C24.1962 22.7043 24.3915 22.2185 24.4844 21.7087H19.9994V18.4853H27.8477C27.946 19.0303 27.9993 19.5987 27.9993 20.1895C27.9993 22.7278 27.091 24.8645 25.5143 26.3145C24.136 27.5878 22.2494 28.3337 19.9994 28.3337C18.9049 28.3341 17.821 28.1188 16.8098 27.7002C15.7986 27.2816 14.8797 26.6678 14.1058 25.8939C13.3319 25.12 12.7181 24.2011 12.2995 23.1899C11.8808 22.1786 11.6656 21.0948 11.666 20.0003C11.666 18.6553 11.9877 17.3837 12.5527 16.2587Z" fill="#D3D3D3"/>
</svg>
