<svg width="40" height="40" viewBox="0 0 40 40" fill="none" xmlns="http://www.w3.org/2000/svg">
<circle cx="20" cy="20" r="20" transform="matrix(-1 0 0 1 40 0)" fill="#555555"/>
<path d="M12.5507 16.2587C13.2441 14.878 14.3077 13.7174 15.6228 12.9065C16.9378 12.0957 18.4524 11.6665 19.9974 11.667C22.2432 11.667 24.1299 12.492 25.5724 13.8378L23.1832 16.2278C22.3191 15.402 21.2207 14.9812 19.9974 14.9812C17.8266 14.9812 15.9891 16.4478 15.3349 18.417C15.1682 18.917 15.0732 19.4503 15.0732 20.0003C15.0732 20.5503 15.1682 21.0837 15.3349 21.5837C15.9899 23.5537 17.8266 25.0195 19.9974 25.0195C21.1182 25.0195 22.0724 24.7237 22.8191 24.2237C23.2519 23.9387 23.6225 23.5688 23.9084 23.1366C24.1943 22.7043 24.3896 22.2185 24.4824 21.7087H19.9974V18.4853H27.8457C27.9441 19.0303 27.9974 19.5987 27.9974 20.1895C27.9974 22.7278 27.0891 24.8645 25.5124 26.3145C24.1341 27.5878 22.2474 28.3337 19.9974 28.3337C18.9029 28.3341 17.8191 28.1188 16.8078 27.7002C15.7966 27.2816 14.8778 26.6678 14.1039 25.8939C13.33 25.12 12.7161 24.2011 12.2975 23.1899C11.8789 22.1786 11.6636 21.0948 11.6641 20.0003C11.6641 18.6553 11.9857 17.3837 12.5507 16.2587Z" fill="#333333"/>
</svg>
