<svg width="40" height="40" viewBox="0 0 40 40" fill="none" xmlns="http://www.w3.org/2000/svg">
<circle cx="20" cy="20" r="20" transform="matrix(-1 0 0 1 40 0)" fill="#555555"/>
<path d="M28.7146 14.9997C28.0729 15.2913 27.3813 15.483 26.6646 15.5747C27.3979 15.133 27.9646 14.433 28.2313 13.5913C27.5396 14.008 26.7729 14.2997 25.9646 14.4663C25.3062 13.7497 24.3813 13.333 23.3313 13.333C21.3729 13.333 19.7729 14.933 19.7729 16.908C19.7729 17.1913 19.8063 17.4663 19.8646 17.7247C16.8979 17.5747 14.2563 16.1497 12.4979 13.9913C12.1896 14.5163 12.0146 15.133 12.0146 15.783C12.0146 17.0247 12.6396 18.1247 13.6063 18.7497C13.0146 18.7497 12.4646 18.583 11.9813 18.333V18.358C11.9813 20.0913 13.2146 21.5413 14.8479 21.8663C14.3235 22.0098 13.773 22.0298 13.2396 21.9247C13.4659 22.6351 13.9092 23.2567 14.5071 23.7021C15.105 24.1476 15.8275 24.3944 16.5729 24.408C15.3093 25.4084 13.7429 25.9491 12.1313 25.9413C11.8479 25.9413 11.5646 25.9247 11.2812 25.8913C12.8646 26.908 14.7479 27.4997 16.7646 27.4997C23.3313 27.4997 26.9396 22.0497 26.9396 17.3247C26.9396 17.1663 26.9396 17.0163 26.9312 16.858C27.6313 16.358 28.2312 15.7247 28.7146 14.9997Z" fill="#333333"/>
</svg>
