<svg width="40" height="40" viewBox="0 0 40 40" fill="none" xmlns="http://www.w3.org/2000/svg">
<circle cx="20" cy="20" r="20" transform="matrix(-1 0 0 1 40 0)" fill="#EDEDED"/>
<path d="M12.5527 16.2577C13.246 14.8771 14.3097 13.7164 15.6247 12.9056C16.9398 12.0947 18.4544 11.6655 19.9994 11.666C22.2452 11.666 24.1319 12.491 25.5744 13.8368L23.1852 16.2268C22.321 15.401 21.2227 14.9802 19.9994 14.9802C17.8285 14.9802 15.991 16.4468 15.3369 18.416C15.1702 18.916 15.0752 19.4493 15.0752 19.9993C15.0752 20.5493 15.1702 21.0827 15.3369 21.5827C15.9919 23.5527 17.8285 25.0185 19.9994 25.0185C21.1202 25.0185 22.0744 24.7227 22.821 24.2227C23.2539 23.9377 23.6245 23.5679 23.9104 23.1356C24.1962 22.7033 24.3915 22.2176 24.4844 21.7077H19.9994V18.4843H27.8477C27.946 19.0293 27.9993 19.5977 27.9993 20.1885C27.9993 22.7268 27.091 24.8635 25.5143 26.3135C24.136 27.5868 22.2494 28.3327 19.9994 28.3327C18.9049 28.3331 17.821 28.1179 16.8098 27.6992C15.7986 27.2806 14.8797 26.6668 14.1058 25.8929C13.3319 25.119 12.7181 24.2001 12.2995 23.1889C11.8808 22.1777 11.6656 21.0938 11.666 19.9993C11.666 18.6543 11.9877 17.3827 12.5527 16.2577Z" fill="#1D1D22"/>
</svg>
