<svg width="40" height="40" viewBox="0 0 40 40" fill="none" xmlns="http://www.w3.org/2000/svg">
<circle cx="20" cy="20" r="20" transform="matrix(-1 0 0 1 40 0)" fill="#EDEDED"/>
<path d="M28.7165 15.0007C28.0749 15.2923 27.3832 15.484 26.6665 15.5757C27.3999 15.134 27.9665 14.434 28.2332 13.5923C27.5415 14.009 26.7749 14.3007 25.9665 14.4673C25.3082 13.7507 24.3832 13.334 23.3332 13.334C21.3749 13.334 19.7749 14.934 19.7749 16.909C19.7749 17.1923 19.8082 17.4673 19.8665 17.7257C16.8999 17.5757 14.2582 16.1507 12.4999 13.9923C12.1915 14.5173 12.0165 15.134 12.0165 15.784C12.0165 17.0257 12.6415 18.1257 13.6082 18.7507C13.0165 18.7507 12.4665 18.584 11.9832 18.334V18.359C11.9832 20.0923 13.2165 21.5423 14.8499 21.8673C14.3255 22.0108 13.7749 22.0308 13.2415 21.9257C13.4679 22.6361 13.9112 23.2577 14.5091 23.7031C15.107 24.1485 15.8294 24.3954 16.5749 24.409C15.3112 25.4094 13.7449 25.9501 12.1332 25.9423C11.8499 25.9423 11.5665 25.9257 11.2832 25.8923C12.8665 26.909 14.7499 27.5007 16.7665 27.5007C23.3332 27.5007 26.9415 22.0507 26.9415 17.3257C26.9415 17.1673 26.9415 17.0173 26.9332 16.859C27.6332 16.359 28.2332 15.7257 28.7165 15.0007Z" fill="#1D1D22"/>
</svg>
