<svg width="40" height="40" viewBox="0 0 40 40" fill="none" xmlns="http://www.w3.org/2000/svg">
<circle cx="20" cy="20" r="20" transform="matrix(-1 0 0 1 40 0)" fill="#EDEDED"/>
<path d="M30.2357 20.5825C30.2357 15.2272 25.9002 10.8809 20.5583 10.8809C15.2163 10.8809 10.8809 15.2272 10.8809 20.5825C10.8809 25.2781 14.2099 29.1879 18.6228 30.0902V23.493H16.6873V20.5825H18.6228V18.1571C18.6228 16.2847 20.1421 14.7615 22.0099 14.7615H24.4292V17.672H22.4938C21.9615 17.672 21.526 18.1086 21.526 18.6422V20.5825H24.4292V23.493H21.526V30.2357C26.4131 29.7506 30.2357 25.6177 30.2357 20.5825Z" fill="#1D1D22"/>
</svg>
