<svg width="40" height="40" viewBox="0 0 40 40" fill="none" xmlns="http://www.w3.org/2000/svg">
<circle cx="20" cy="20" r="20" transform="matrix(-1 0 0 1 40 0)" fill="#555555"/>
<path d="M20.0026 11.6924C22.4932 11.6924 22.8039 11.7008 23.7811 11.7432C24.7574 11.7855 25.4219 11.9268 26.0068 12.1366C26.6118 12.3515 27.1214 12.6426 27.6311 13.1122C28.0972 13.5352 28.4579 14.0469 28.688 14.6116C28.9144 15.1506 29.0684 15.7649 29.1143 16.6661C29.1574 17.5681 29.1693 17.8549 29.1693 20.1539C29.1693 22.4529 29.1601 22.7398 29.1143 23.6418C29.0684 24.5429 28.9144 25.1564 28.688 25.6962C28.4586 26.2613 28.0978 26.7731 27.6311 27.1956C27.1727 27.6257 26.6185 27.9586 26.0068 28.1712C25.4229 28.3802 24.7574 28.5224 23.7811 28.5647C22.8039 28.6045 22.4932 28.6155 20.0026 28.6155C17.512 28.6155 17.2013 28.607 16.2241 28.5647C15.2479 28.5224 14.5833 28.3802 13.9984 28.1712C13.3864 27.9592 12.832 27.6263 12.3741 27.1956C11.9079 26.7727 11.5472 26.261 11.3172 25.6962C11.0899 25.1572 10.9368 24.5429 10.8909 23.6418C10.8479 22.7398 10.8359 22.4529 10.8359 20.1539C10.8359 17.8549 10.8451 17.5681 10.8909 16.6661C10.9368 15.7641 11.0899 15.1515 11.3172 14.6116C11.5466 14.0465 11.9073 13.5347 12.3741 13.1122C12.8321 12.6817 13.3865 12.3488 13.9984 12.1366C14.5833 11.9268 15.2469 11.7855 16.2241 11.7432C17.2013 11.7034 17.512 11.6924 20.0026 11.6924ZM20.0026 15.9232C18.787 15.9232 17.6212 16.3689 16.7617 17.1623C15.9022 17.9557 15.4193 19.0319 15.4193 20.1539C15.4193 21.276 15.9022 22.3521 16.7617 23.1455C17.6212 23.939 18.787 24.3847 20.0026 24.3847C21.2182 24.3847 22.384 23.939 23.2435 23.1455C24.1031 22.3521 24.5859 21.276 24.5859 20.1539C24.5859 19.0319 24.1031 17.9557 23.2435 17.1623C22.384 16.3689 21.2182 15.9232 20.0026 15.9232ZM25.9609 15.7116C25.9609 15.4311 25.8402 15.1621 25.6253 14.9637C25.4104 14.7654 25.119 14.6539 24.8151 14.6539C24.5112 14.6539 24.2198 14.7654 24.0049 14.9637C23.79 15.1621 23.6693 15.4311 23.6693 15.7116C23.6693 15.9921 23.79 16.2612 24.0049 16.4595C24.2198 16.6579 24.5112 16.7693 24.8151 16.7693C25.119 16.7693 25.4104 16.6579 25.6253 16.4595C25.8402 16.2612 25.9609 15.9921 25.9609 15.7116ZM20.0026 17.6155C20.7319 17.6155 21.4314 17.8829 21.9471 18.359C22.4629 18.835 22.7526 19.4807 22.7526 20.1539C22.7526 20.8272 22.4629 21.4728 21.9471 21.9489C21.4314 22.4249 20.7319 22.6924 20.0026 22.6924C19.2733 22.6924 18.5738 22.4249 18.0581 21.9489C17.5423 21.4728 17.2526 20.8272 17.2526 20.1539C17.2526 19.4807 17.5423 18.835 18.0581 18.359C18.5738 17.8829 19.2733 17.6155 20.0026 17.6155Z" fill="#333333"/>
</svg>
