<svg width="40" height="40" viewBox="0 0 40 40" fill="none" xmlns="http://www.w3.org/2000/svg">
<circle cx="20" cy="20" r="20" transform="matrix(-1 0 0 1 40 0)" fill="#555555"/>
<path d="M29.1649 18.0919C29.2061 16.8991 28.9453 15.7152 28.4066 14.6502C28.0411 14.2132 27.5338 13.9183 26.9732 13.8169C24.6545 13.6065 22.3262 13.5203 19.9982 13.5586C17.6788 13.5185 15.3588 13.602 13.0482 13.8086C12.5914 13.8917 12.1687 14.1059 11.8316 14.4252C11.0816 15.1169 10.9982 16.3002 10.9149 17.3002C10.794 19.0982 10.794 20.9023 10.9149 22.7002C10.939 23.2631 11.0228 23.8218 11.1649 24.3669C11.2654 24.7878 11.4687 25.1772 11.7566 25.5002C12.096 25.8364 12.5286 26.0629 12.9982 26.1502C14.7948 26.372 16.6051 26.4639 18.4149 26.4252C21.3316 26.4669 23.8899 26.4252 26.9149 26.1919C27.3961 26.1099 27.8409 25.8832 28.1899 25.5419C28.4232 25.3085 28.5975 25.0228 28.6982 24.7086C28.9963 23.7941 29.1426 22.837 29.1316 21.8752C29.1649 21.4086 29.1649 18.5919 29.1649 18.0919ZM18.1149 22.3752V17.2169L23.0482 19.8086C21.6649 20.5752 19.8399 21.4419 18.1149 22.3752Z" fill="#333333"/>
</svg>
