<svg width="40" height="40" viewBox="0 0 40 40" fill="none" xmlns="http://www.w3.org/2000/svg">
<circle cx="20" cy="20" r="20" transform="matrix(-1 0 0 1 40 0)" fill="#555555"/>
<path d="M28.4 11H11.6C11.1757 11 10.7687 11.1577 10.4686 11.4384C10.1686 11.7191 10 12.0998 10 12.4968V28.2129C10 28.6099 10.1686 28.9906 10.4686 29.2713C10.7687 29.552 11.1757 29.7097 11.6 29.7097H28.4C28.8243 29.7097 29.2313 29.552 29.5314 29.2713C29.8314 28.9906 30 28.6099 30 28.2129V12.4968C30 12.0998 29.8314 11.7191 29.5314 11.4384C29.2313 11.1577 28.8243 11 28.4 11ZM16.8 24.8452C16.8 25.0436 16.7157 25.234 16.5657 25.3744C16.4157 25.5147 16.2122 25.5935 16 25.5935C15.7878 25.5935 15.5843 25.5147 15.4343 25.3744C15.2843 25.234 15.2 25.0436 15.2 24.8452V18.8581C15.2 18.6596 15.2843 18.4692 15.4343 18.3289C15.5843 18.1885 15.7878 18.1097 16 18.1097C16.2122 18.1097 16.4157 18.1885 16.5657 18.3289C16.7157 18.4692 16.8 18.6596 16.8 18.8581V24.8452ZM16 16.9871C15.7627 16.9871 15.5307 16.9213 15.3333 16.7979C15.136 16.6746 14.9822 16.4992 14.8913 16.2941C14.8005 16.089 14.7768 15.8633 14.8231 15.6455C14.8694 15.4278 14.9836 15.2277 15.1515 15.0707C15.3193 14.9137 15.5331 14.8068 15.7659 14.7635C15.9987 14.7202 16.2399 14.7424 16.4592 14.8274C16.6785 14.9124 16.8659 15.0562 16.9978 15.2408C17.1296 15.4255 17.2 15.6425 17.2 15.8645C17.2 16.1622 17.0736 16.4478 16.8485 16.6583C16.6235 16.8688 16.3183 16.9871 16 16.9871ZM25.6 24.8452C25.6 25.0436 25.5157 25.234 25.3657 25.3744C25.2157 25.5147 25.0122 25.5935 24.8 25.5935C24.5878 25.5935 24.3843 25.5147 24.2343 25.3744C24.0843 25.234 24 25.0436 24 24.8452V21.4774C24 20.9812 23.7893 20.5053 23.4142 20.1544C23.0391 19.8036 22.5304 19.6065 22 19.6065C21.4696 19.6065 20.9609 19.8036 20.5858 20.1544C20.2107 20.5053 20 20.9812 20 21.4774V24.8452C20 25.0436 19.9157 25.234 19.7657 25.3744C19.6157 25.5147 19.4122 25.5935 19.2 25.5935C18.9878 25.5935 18.7843 25.5147 18.6343 25.3744C18.4843 25.234 18.4 25.0436 18.4 24.8452V18.8581C18.3994 18.6739 18.4715 18.496 18.6024 18.3584C18.7333 18.2208 18.9138 18.1332 19.1094 18.1124C19.3051 18.0915 19.502 18.1389 19.6626 18.2454C19.8233 18.3519 19.9363 18.5101 19.98 18.6897C20.5213 18.3464 21.1524 18.1475 21.8054 18.1145C22.4584 18.0814 23.1087 18.2154 23.6865 18.502C24.2642 18.7886 24.7477 19.217 25.0848 19.7412C25.4219 20.2654 25.6 20.8656 25.6 21.4774V24.8452Z" fill="#333333"/>
</svg>
