<svg width="40" height="40" viewBox="0 0 40 40" fill="none" xmlns="http://www.w3.org/2000/svg">
<circle cx="20" cy="20" r="20" transform="matrix(-1 0 0 1 40 0)" fill="#EDEDED"/>
<path d="M20.0007 11.6914C22.4912 11.6914 22.802 11.6999 23.7792 11.7422C24.7554 11.7845 25.42 11.9258 26.0048 12.1356C26.6098 12.3506 27.1195 12.6416 27.6292 13.1113C28.0953 13.5342 28.4559 14.0459 28.6861 14.6106C28.9125 15.1496 29.0665 15.7639 29.1123 16.6651C29.1554 17.5671 29.1673 17.8539 29.1673 20.1529C29.1673 22.4519 29.1582 22.7388 29.1123 23.6408C29.0665 24.5419 28.9125 25.1554 28.6861 25.6953C28.4566 26.2603 28.0958 26.7721 27.6292 27.1946C27.1708 27.6248 26.6165 27.9577 26.0048 28.1703C25.4209 28.3793 24.7554 28.5214 23.7792 28.5637C22.802 28.6035 22.4912 28.6145 20.0007 28.6145C17.5101 28.6145 17.1993 28.606 16.2222 28.5637C15.2459 28.5214 14.5813 28.3793 13.9965 28.1703C13.3844 27.9583 12.8301 27.6253 12.3722 27.1946C11.9059 26.7717 11.5453 26.26 11.3152 25.6953C11.0879 25.1563 10.9348 24.5419 10.889 23.6408C10.8459 22.7388 10.834 22.4519 10.834 20.1529C10.834 17.8539 10.8432 17.5671 10.889 16.6651C10.9348 15.7631 11.0879 15.1505 11.3152 14.6106C11.5446 14.0456 11.9054 13.5338 12.3722 13.1113C12.8302 12.6808 13.3845 12.3478 13.9965 12.1356C14.5813 11.9258 15.245 11.7845 16.2222 11.7422C17.1993 11.7024 17.5101 11.6914 20.0007 11.6914ZM20.0007 15.9222C18.7851 15.9222 17.6193 16.3679 16.7597 17.1613C15.9002 17.9548 15.4173 19.0309 15.4173 20.1529C15.4173 21.275 15.9002 22.3511 16.7597 23.1446C17.6193 23.938 18.7851 24.3837 20.0007 24.3837C21.2162 24.3837 22.382 23.938 23.2416 23.1446C24.1011 22.3511 24.584 21.275 24.584 20.1529C24.584 19.0309 24.1011 17.9548 23.2416 17.1613C22.382 16.3679 21.2162 15.9222 20.0007 15.9222ZM25.959 15.7106C25.959 15.4301 25.8383 15.1611 25.6234 14.9627C25.4085 14.7644 25.117 14.6529 24.8132 14.6529C24.5093 14.6529 24.2178 14.7644 24.0029 14.9627C23.788 15.1611 23.6673 15.4301 23.6673 15.7106C23.6673 15.9912 23.788 16.2602 24.0029 16.4585C24.2178 16.6569 24.5093 16.7683 24.8132 16.7683C25.117 16.7683 25.4085 16.6569 25.6234 16.4585C25.8383 16.2602 25.959 15.9912 25.959 15.7106ZM20.0007 17.6145C20.73 17.6145 21.4295 17.8819 21.9452 18.358C22.4609 18.834 22.7507 19.4797 22.7507 20.1529C22.7507 20.8262 22.4609 21.4719 21.9452 21.9479C21.4295 22.424 20.73 22.6914 20.0007 22.6914C19.2713 22.6914 18.5718 22.424 18.0561 21.9479C17.5404 21.4719 17.2507 20.8262 17.2507 20.1529C17.2507 19.4797 17.5404 18.834 18.0561 18.358C18.5718 17.8819 19.2713 17.6145 20.0007 17.6145Z" fill="#1D1D22"/>
</svg>
