<svg width="40" height="40" viewBox="0 0 40 40" fill="none" xmlns="http://www.w3.org/2000/svg">
<circle cx="20" cy="20" r="20" transform="matrix(-1 0 0 1 40 0)" fill="black" fill-opacity="0.5"/>
<path d="M20.0007 11.6924C22.4912 11.6924 22.802 11.7008 23.7792 11.7432C24.7554 11.7855 25.42 11.9268 26.0048 12.1366C26.6098 12.3515 27.1195 12.6426 27.6292 13.1122C28.0953 13.5352 28.4559 14.0469 28.6861 14.6116C28.9125 15.1506 29.0665 15.7649 29.1123 16.6661C29.1554 17.5681 29.1673 17.8549 29.1673 20.1539C29.1673 22.4529 29.1582 22.7398 29.1123 23.6418C29.0665 24.5429 28.9125 25.1564 28.6861 25.6962C28.4566 26.2613 28.0958 26.7731 27.6292 27.1956C27.1708 27.6257 26.6165 27.9586 26.0048 28.1712C25.4209 28.3802 24.7554 28.5224 23.7792 28.5647C22.802 28.6045 22.4912 28.6155 20.0007 28.6155C17.5101 28.6155 17.1993 28.607 16.2222 28.5647C15.2459 28.5224 14.5813 28.3802 13.9965 28.1712C13.3844 27.9592 12.8301 27.6263 12.3722 27.1956C11.9059 26.7727 11.5453 26.261 11.3152 25.6962C11.0879 25.1572 10.9348 24.5429 10.889 23.6418C10.8459 22.7398 10.834 22.4529 10.834 20.1539C10.834 17.8549 10.8432 17.5681 10.889 16.6661C10.9348 15.7641 11.0879 15.1515 11.3152 14.6116C11.5446 14.0465 11.9054 13.5347 12.3722 13.1122C12.8302 12.6817 13.3845 12.3488 13.9965 12.1366C14.5813 11.9268 15.245 11.7855 16.2222 11.7432C17.1993 11.7034 17.5101 11.6924 20.0007 11.6924ZM20.0007 15.9232C18.7851 15.9232 17.6193 16.3689 16.7597 17.1623C15.9002 17.9557 15.4173 19.0319 15.4173 20.1539C15.4173 21.276 15.9002 22.3521 16.7597 23.1455C17.6193 23.939 18.7851 24.3847 20.0007 24.3847C21.2162 24.3847 22.382 23.939 23.2416 23.1455C24.1011 22.3521 24.584 21.276 24.584 20.1539C24.584 19.0319 24.1011 17.9557 23.2416 17.1623C22.382 16.3689 21.2162 15.9232 20.0007 15.9232ZM25.959 15.7116C25.959 15.4311 25.8383 15.1621 25.6234 14.9637C25.4085 14.7654 25.117 14.6539 24.8132 14.6539C24.5093 14.6539 24.2178 14.7654 24.0029 14.9637C23.788 15.1621 23.6673 15.4311 23.6673 15.7116C23.6673 15.9921 23.788 16.2612 24.0029 16.4595C24.2178 16.6579 24.5093 16.7693 24.8132 16.7693C25.117 16.7693 25.4085 16.6579 25.6234 16.4595C25.8383 16.2612 25.959 15.9921 25.959 15.7116ZM20.0007 17.6155C20.73 17.6155 21.4295 17.8829 21.9452 18.359C22.4609 18.835 22.7507 19.4807 22.7507 20.1539C22.7507 20.8272 22.4609 21.4728 21.9452 21.9489C21.4295 22.4249 20.73 22.6924 20.0007 22.6924C19.2713 22.6924 18.5718 22.4249 18.0561 21.9489C17.5404 21.4728 17.2507 20.8272 17.2507 20.1539C17.2507 19.4807 17.5404 18.835 18.0561 18.359C18.5718 17.8829 19.2713 17.6155 20.0007 17.6155Z" fill="#D3D3D3"/>
</svg>
