<svg width="40" height="40" viewBox="0 0 40 40" fill="none" xmlns="http://www.w3.org/2000/svg">
<circle cx="20" cy="20" r="20" transform="matrix(-1 0 0 1 40 0)" fill="black"/>
<path d="M28.7165 14.9987C28.0749 15.2904 27.3832 15.482 26.6665 15.5737C27.3999 15.132 27.9665 14.432 28.2332 13.5904C27.5415 14.007 26.7749 14.2987 25.9665 14.4654C25.3082 13.7487 24.3832 13.332 23.3332 13.332C21.3749 13.332 19.7749 14.932 19.7749 16.907C19.7749 17.1904 19.8082 17.4654 19.8665 17.7237C16.8999 17.5737 14.2582 16.1487 12.4999 13.9904C12.1915 14.5154 12.0165 15.132 12.0165 15.782C12.0165 17.0237 12.6415 18.1237 13.6082 18.7487C13.0165 18.7487 12.4665 18.582 11.9832 18.332V18.357C11.9832 20.0904 13.2165 21.5404 14.8499 21.8654C14.3255 22.0089 13.7749 22.0288 13.2415 21.9237C13.4679 22.6341 13.9112 23.2557 14.5091 23.7011C15.107 24.1466 15.8294 24.3934 16.5749 24.407C15.3112 25.4074 13.7449 25.9481 12.1332 25.9404C11.8499 25.9404 11.5665 25.9237 11.2832 25.8904C12.8665 26.907 14.7499 27.4987 16.7665 27.4987C23.3332 27.4987 26.9415 22.0487 26.9415 17.3237C26.9415 17.1654 26.9415 17.0154 26.9332 16.857C27.6332 16.357 28.2332 15.7237 28.7165 14.9987Z" fill="white"/>
</svg>
