<svg width="25" height="25" viewBox="0 0 25 25" fill="none" xmlns="http://www.w3.org/2000/svg">
<path d="M24.375 23.1378L17.767 16.5298C19.355 14.6234 20.1468 12.1783 19.9779 9.70296C19.8089 7.22764 18.6921 4.91276 16.8599 3.23987C15.0276 1.56698 12.6209 0.66488 10.1405 0.72124C7.66007 0.777601 5.29685 1.78808 3.54246 3.54246C1.78808 5.29685 0.777601 7.66007 0.72124 10.1405C0.66488 12.6209 1.56698 15.0276 3.23987 16.8599C4.91276 18.6921 7.22764 19.8089 9.70296 19.9779C12.1783 20.1468 14.6234 19.355 16.5298 17.767L23.1378 24.375L24.375 23.1378ZM2.50004 10.375C2.50004 8.81751 2.9619 7.29496 3.82722 5.99993C4.69253 4.70489 5.92244 3.69553 7.36141 3.09949C8.80038 2.50345 10.3838 2.3475 11.9114 2.65136C13.439 2.95521 14.8422 3.70524 15.9435 4.80657C17.0448 5.90791 17.7949 7.3111 18.0987 8.8387C18.4026 10.3663 18.2466 11.9497 17.6506 13.3887C17.0546 14.8276 16.0452 16.0575 14.7502 16.9229C13.4551 17.7882 11.9326 18.25 10.375 18.25C8.28717 18.2477 6.28548 17.4173 4.80913 15.941C3.33279 14.4646 2.50236 12.4629 2.50004 10.375Z" fill="white"/>
</svg>
