<svg width="25" height="20" viewBox="0 0 25 20" fill="none" xmlns="http://www.w3.org/2000/svg">
<path d="M8.375 9.46875H2.30094C2.4926 8.19242 2.94835 6.97008 3.63908 5.87983C4.32981 4.78957 5.24034 3.85536 6.3125 3.13687L8.15844 1.89937L7.02406 0.1875L5.17812 1.425C3.62432 2.46045 2.35014 3.86345 1.46865 5.5095C0.587161 7.15554 0.125626 8.99373 0.125 10.8609V17.7188C0.125 18.2658 0.342298 18.7904 0.729092 19.1772C1.11589 19.564 1.64049 19.7812 2.1875 19.7812H8.375C8.92201 19.7812 9.44661 19.564 9.83341 19.1772C10.2202 18.7904 10.4375 18.2658 10.4375 17.7188V11.5312C10.4375 10.9842 10.2202 10.4596 9.83341 10.0728C9.44661 9.68605 8.92201 9.46875 8.375 9.46875ZM22.8125 9.46875H16.7384C16.9301 8.19242 17.3858 6.97008 18.0766 5.87983C18.7673 4.78957 19.6778 3.85536 20.75 3.13687L22.5959 1.89937L21.4719 0.1875L19.6156 1.425C18.0618 2.46045 16.7876 3.86345 15.9061 5.5095C15.0247 7.15554 14.5631 8.99373 14.5625 10.8609V17.7188C14.5625 18.2658 14.7798 18.7904 15.1666 19.1772C15.5534 19.564 16.078 19.7812 16.625 19.7812H22.8125C23.3595 19.7812 23.8841 19.564 24.2709 19.1772C24.6577 18.7904 24.875 18.2658 24.875 17.7188V11.5312C24.875 10.9842 24.6577 10.4596 24.2709 10.0728C23.8841 9.68605 23.3595 9.46875 22.8125 9.46875Z" fill="black"/>
</svg>
