<svg width="40" height="40" viewBox="0 0 40 40" fill="none" xmlns="http://www.w3.org/2000/svg">
<circle cx="20" cy="20" r="20" transform="matrix(-1 0 0 1 40 0)" fill="black"/>
<path d="M29.1669 18.0919C29.2081 16.8991 28.9472 15.7152 28.4085 14.6502C28.043 14.2132 27.5358 13.9183 26.9752 13.8169C24.6565 13.6065 22.3281 13.5203 20.0002 13.5586C17.6807 13.5185 15.3608 13.602 13.0502 13.8086C12.5934 13.8917 12.1706 14.1059 11.8335 14.4252C11.0835 15.1169 11.0002 16.3002 10.9169 17.3002C10.7959 19.0982 10.7959 20.9023 10.9169 22.7002C10.941 23.2631 11.0248 23.8218 11.1669 24.3669C11.2673 24.7878 11.4706 25.1772 11.7585 25.5002C12.0979 25.8364 12.5305 26.0629 13.0002 26.1502C14.7968 26.372 16.607 26.4639 18.4169 26.4252C21.3335 26.4669 23.8919 26.4252 26.9169 26.1919C27.3981 26.1099 27.8428 25.8832 28.1919 25.5419C28.4252 25.3085 28.5994 25.0228 28.7002 24.7086C28.9982 23.7941 29.1446 22.837 29.1335 21.8752C29.1669 21.4086 29.1669 18.5919 29.1669 18.0919ZM18.1169 22.3752V17.2169L23.0502 19.8086C21.6669 20.5752 19.8419 21.4419 18.1169 22.3752Z" fill="white"/>
</svg>
